<svg xmlns="http://www.w3.org/2000/svg" xmlns:xlink="http://www.w3.org/1999/xlink" width="500" zoomAndPan="magnify" viewBox="0 0 375 374.999991" height="500" preserveAspectRatio="xMidYMid meet" version="1.0"><defs><g/></defs><g fill="#FF2467" fill-opacity="1"><g transform="translate(95.800779, 234.374985)"><g><path d="M 24.5 -2.09375 L 32.90625 -4.203125 L 32.90625 -94.5 L 16.796875 -94.5 C 16.796875 -88.800781 15.257812 -83.34375 12.1875 -78.125 C 10.875 -75.976562 9.378906 -74.203125 7.703125 -72.796875 L 3.5 -72.796875 L 3.5 -98 L 85.40625 -98 L 85.40625 -72.796875 L 81.203125 -72.796875 C 79.429688 -74.203125 77.890625 -75.976562 76.578125 -78.125 C 73.585938 -83.164062 72.09375 -88.625 72.09375 -94.5 L 56 -94.5 L 56 -4.203125 L 64.40625 -2.09375 L 64.40625 0 L 24.5 0 Z M 24.5 -2.09375 "/></g></g></g><g fill="#FF2467" fill-opacity="1"><g transform="translate(184.695801, 234.374985)"><g><path d="M 7 -2.09375 L 15.40625 -4.203125 L 15.40625 -93.796875 L 7 -95.90625 L 7 -98 L 46.203125 -98 C 61.691406 -98 72.796875 -95.453125 79.515625 -90.359375 C 86.234375 -85.273438 89.59375 -77.789062 89.59375 -67.90625 C 89.59375 -58.007812 86.234375 -50.515625 79.515625 -45.421875 C 72.796875 -40.335938 61.691406 -37.796875 46.203125 -37.796875 L 38.5 -37.796875 L 38.5 -4.203125 L 46.90625 -2.09375 L 46.90625 0 L 7 0 Z M 46.203125 -41.296875 C 52.078125 -41.296875 56.8125 -43.535156 60.40625 -48.015625 C 64 -52.492188 65.796875 -59.125 65.796875 -67.90625 C 65.796875 -76.582031 64 -83.179688 60.40625 -87.703125 C 56.8125 -92.234375 52.078125 -94.5 46.203125 -94.5 L 38.5 -94.5 L 38.5 -41.296875 Z M 46.203125 -41.296875 "/></g></g></g></svg>